<?xml version="1.0" standalone="no"?>
<!DOCTYPE svg PUBLIC "-//W3C//DTD SVG 20010904//EN"
 "http://www.w3.org/TR/2001/REC-SVG-20010904/DTD/svg10.dtd">
<svg version="1.0" xmlns="http://www.w3.org/2000/svg"
 width="1126.000000pt" height="1126.000000pt" viewBox="0 0 1126.000000 1126.000000"
 preserveAspectRatio="xMidYMid meet">
<metadata>
Created by potrace 1.11, written by Peter Selinger 2001-2013
</metadata>
<g transform="translate(0.000000,1126.000000) scale(0.100000,-0.100000)"
fill="#000000" stroke="none">
<path d="M5337 11184 c-1 -1 -51 -5 -112 -9 -130 -8 -160 -10 -240 -19 -33 -4
-80 -9 -105 -12 -25 -2 -61 -7 -80 -9 -19 -3 -53 -8 -75 -10 -22 -3 -62 -10
-90 -15 -27 -5 -68 -12 -90 -15 -22 -3 -107 -19 -190 -36 -82 -17 -157 -32
-165 -34 -8 -2 -35 -8 -60 -15 -25 -7 -52 -14 -61 -15 -38 -8 -312 -89 -409
-122 -318 -107 -703 -278 -909 -402 -46 -28 -88 -51 -92 -51 -4 0 -9 -3 -11
-7 -1 -5 -30 -26 -63 -48 -150 -100 -464 -352 -498 -398 -16 -24 -22 -46 -22
-86 0 -51 2 -55 48 -97 56 -50 105 -74 287 -139 74 -26 162 -61 195 -77 233
-117 337 -335 264 -549 -61 -178 -251 -361 -494 -475 -249 -116 -482 -90 -658
75 -64 59 -106 118 -158 221 -47 94 -107 199 -124 216 -52 53 -109 63 -178 31
-52 -25 -184 -146 -258 -238 -39 -48 -169 -236 -169 -244 0 -2 -15 -28 -33
-57 -19 -29 -37 -60 -40 -68 -4 -8 -19 -35 -33 -60 -90 -157 -198 -393 -284
-620 -40 -107 -123 -357 -135 -409 -3 -9 -16 -59 -30 -111 -14 -52 -28 -106
-31 -120 -3 -13 -14 -63 -25 -110 -18 -76 -43 -200 -55 -270 -3 -14 -11 -59
-19 -100 -8 -41 -17 -93 -20 -115 -2 -22 -7 -51 -10 -65 -5 -27 -14 -82 -20
-130 -2 -17 -6 -43 -9 -58 -3 -15 -8 -47 -11 -72 -3 -25 -8 -56 -10 -70 -3
-14 -7 -41 -10 -60 -3 -19 -10 -60 -15 -90 -34 -200 -35 -192 25 -195 28 -2
84 -5 125 -9 41 -3 116 -8 165 -11 50 -4 97 -8 105 -10 39 -10 311 -20 550
-19 237 0 377 5 508 19 104 12 139 16 172 20 19 3 51 7 70 9 145 19 362 63
428 88 78 28 157 108 167 169 13 73 6 126 -32 232 -32 90 -36 114 -37 202 -1
94 1 105 31 165 56 113 170 215 323 287 63 30 144 60 185 69 209 43 394 31
605 -40 223 -74 350 -187 391 -346 17 -69 17 -107 -2 -201 -26 -130 -72 -220
-204 -390 -95 -123 -112 -174 -69 -208 24 -19 122 -56 174 -65 14 -2 32 -7 40
-9 8 -3 38 -8 65 -11 28 -3 73 -8 100 -11 28 -3 70 -7 95 -10 246 -27 823 -28
1180 0 156 12 215 17 218 20 4 4 2 187 -3 290 -18 365 -24 924 -12 1115 8 141
15 189 53 395 23 130 97 365 131 419 52 82 121 120 213 120 78 -1 136 -20 250
-85 113 -64 185 -89 260 -89 116 0 185 60 235 205 66 195 45 479 -46 604 -75
104 -188 103 -363 -3 -131 -80 -229 -92 -333 -41 -68 34 -128 102 -177 201
-39 78 -94 225 -102 274 -3 14 -7 31 -9 38 -2 7 -7 40 -10 75 -3 34 -8 80 -10
102 -3 22 -7 85 -11 140 -3 55 -7 116 -9 135 -7 71 -19 480 -19 635 0 148 11
412 19 478 2 16 7 76 10 135 4 59 9 114 10 124 7 36 8 138 1 145 -6 6 -142 12
-149 7z"/>
<path d="M5869 11155 c-1 -3 -2 -8 -3 -12 -1 -5 -6 -46 -10 -93 -5 -47 -10
-93 -11 -104 -21 -119 -25 -490 -11 -916 8 -256 15 -391 32 -625 2 -38 6 -97
9 -130 11 -176 26 -258 54 -313 60 -116 170 -125 331 -27 217 132 420 91 553
-113 116 -177 155 -400 111 -635 -12 -67 -51 -183 -81 -244 -123 -250 -343
-328 -618 -218 -38 15 -74 31 -80 35 -35 26 -129 71 -165 79 -51 11 -88 0
-113 -35 -23 -31 -55 -179 -72 -339 -4 -33 -9 -62 -10 -65 -2 -3 -6 -45 -10
-95 -4 -49 -9 -99 -11 -110 -18 -93 -23 -599 -10 -860 5 -82 9 -172 11 -200 1
-27 6 -102 10 -165 4 -63 8 -134 8 -157 0 -44 14 -55 60 -48 163 26 1250 26
1455 0 16 -2 61 -7 98 -10 38 -4 71 -8 74 -10 3 -2 26 -6 50 -10 133 -19 361
-88 496 -150 97 -44 167 -113 188 -186 36 -121 8 -225 -104 -385 -102 -146
-112 -300 -25 -402 50 -58 195 -135 295 -157 8 -1 33 -8 55 -14 22 -5 55 -13
74 -16 19 -3 37 -7 40 -9 3 -2 41 -7 84 -11 201 -18 353 72 402 238 21 72 13
186 -20 272 -74 195 -81 324 -24 454 57 130 197 236 350 265 19 3 44 8 55 10
12 2 39 7 60 10 59 9 117 18 136 21 9 2 48 7 85 10 37 4 76 9 86 11 10 2 53 6
95 9 42 4 93 8 112 10 216 26 727 25 900 0 14 -2 63 -7 110 -10 47 -4 98 -8
115 -10 33 -4 109 -7 138 -6 10 1 16 4 14 9 -3 4 -8 39 -12 77 -3 39 -8 84
-11 100 -2 17 -6 55 -9 85 -2 30 -7 78 -10 105 -13 121 -24 218 -30 260 -2 17
-7 53 -10 80 -4 28 -13 88 -21 135 -8 47 -17 101 -20 120 -3 19 -7 46 -10 60
-2 14 -6 34 -8 45 -107 560 -336 1192 -608 1685 -220 399 -499 788 -589 824
-39 16 -42 16 -73 -4 -38 -23 -79 -81 -166 -240 -162 -294 -328 -413 -554
-397 -131 9 -230 46 -401 150 -167 102 -256 205 -308 355 -24 72 -30 103 -30
182 -1 268 122 406 448 499 193 56 246 102 212 183 -21 46 -115 138 -204 198
-12 8 -69 47 -126 87 -190 130 -506 305 -702 388 -267 114 -620 230 -819 269
-11 3 -53 11 -91 20 -74 16 -93 19 -190 36 -187 34 -299 52 -315 52 -8 0 -31
4 -50 8 -19 5 -55 11 -80 13 -25 3 -74 10 -110 16 -36 6 -81 13 -100 16 -19 2
-80 12 -135 20 -111 17 -138 21 -195 30 -22 3 -41 3 -41 0z"/>
<path d="M3046 6799 c-204 -22 -378 -90 -441 -173 -58 -76 -64 -166 -20 -336
44 -174 38 -306 -21 -407 -56 -97 -216 -202 -404 -266 -89 -31 -113 -35 -205
-42 -308 -22 -1526 -39 -1665 -22 -36 4 -92 10 -125 13 -33 4 -64 9 -68 11 -8
5 -4 -63 8 -151 7 -50 26 -189 30 -221 12 -92 26 -193 30 -215 7 -44 15 -100
21 -148 3 -25 7 -48 9 -51 2 -3 6 -30 10 -60 6 -52 9 -67 20 -121 2 -14 6 -36
9 -50 42 -250 103 -531 158 -725 22 -77 41 -147 43 -155 22 -104 165 -484 230
-608 140 -271 262 -398 393 -409 98 -8 189 32 332 147 227 183 457 237 695
163 57 -18 225 -103 225 -114 0 -4 8 -10 18 -13 27 -9 174 -153 229 -226 89
-115 167 -282 188 -400 12 -69 12 -176 -1 -238 -16 -79 -50 -138 -109 -190
-58 -51 -112 -76 -231 -107 -52 -14 -153 -48 -223 -76 l-129 -50 66 -97 c103
-152 128 -178 276 -289 680 -510 1424 -840 2206 -977 94 -17 129 -22 240 -37
41 -5 89 -12 105 -14 17 -2 62 -7 100 -10 39 -3 90 -7 115 -10 25 -2 96 -7
158 -10 l112 -6 1 28 c1 15 3 42 4 58 32 340 40 514 40 825 0 245 -7 415 -19
490 -3 14 -7 51 -11 83 -3 31 -13 92 -21 135 -9 42 -18 88 -20 102 -21 108
-66 206 -106 235 -48 33 -149 12 -289 -62 -256 -135 -425 -152 -605 -63 -215
107 -374 427 -376 755 -3 428 165 738 438 810 139 37 311 2 479 -98 122 -72
253 -78 336 -14 30 23 90 110 120 174 28 60 72 208 84 283 3 19 10 58 15 85
12 63 17 104 26 185 3 36 8 68 10 71 7 12 18 314 17 474 0 161 -10 432 -17
520 -2 22 -7 92 -11 155 -4 63 -9 126 -9 140 -2 20 -7 25 -27 23 -13 -1 -76
-5 -139 -8 -63 -4 -131 -9 -150 -11 -71 -7 -503 -17 -745 -17 -225 -1 -393 6
-450 18 -11 2 -38 6 -60 9 -78 10 -122 18 -234 47 -283 71 -400 182 -369 350
14 74 43 127 153 275 160 214 197 322 146 421 -21 41 -81 100 -123 120 -102
49 -206 80 -294 88 -38 4 -78 8 -89 9 -11 1 -51 -1 -89 -5z"/>
<path d="M6627 5534 c-1 -1 -85 -4 -187 -8 -102 -3 -216 -8 -255 -11 -38 -2
-117 -7 -174 -10 -57 -3 -107 -8 -112 -10 -4 -3 -6 -114 -4 -248 9 -526 6
-891 -10 -1078 -23 -268 -111 -637 -193 -809 -77 -159 -225 -261 -382 -261
-111 0 -213 28 -345 93 -125 62 -140 67 -217 75 -194 18 -311 -129 -360 -452
-13 -91 -4 -302 16 -333 3 -5 7 -19 10 -33 13 -74 86 -222 140 -286 40 -47
120 -85 192 -91 101 -8 145 8 386 136 249 132 408 86 535 -154 51 -97 79 -180
87 -259 3 -33 8 -76 10 -95 3 -19 7 -62 11 -95 3 -33 8 -73 10 -90 3 -16 7
-61 10 -100 2 -38 7 -88 9 -110 16 -134 20 -253 20 -515 0 -162 -3 -331 -7
-375 -7 -78 -16 -196 -22 -283 -1 -23 2 -45 8 -49 12 -7 267 -6 385 2 110 7
203 15 232 20 14 2 50 7 80 10 66 7 269 41 365 60 14 3 37 7 53 10 159 32 484
126 672 194 47 18 92 33 100 36 33 8 321 130 420 177 190 91 360 178 445 230
17 10 37 21 45 25 102 47 235 152 451 354 89 83 105 142 55 198 -26 29 -61 45
-253 119 -84 33 -178 74 -209 93 -119 71 -216 196 -242 314 -9 43 -8 150 2
204 24 123 130 308 251 438 173 187 425 318 630 328 226 11 407 -102 513 -321
16 -32 52 -131 81 -219 29 -88 56 -167 61 -175 27 -42 248 142 373 310 195
263 424 707 571 1110 15 41 30 82 33 90 4 8 7 17 8 20 1 3 5 12 8 20 20 47
140 427 152 480 2 8 11 44 20 80 9 36 18 72 20 80 2 8 11 47 20 85 9 39 19 81
21 95 3 14 7 32 9 40 2 8 7 31 10 50 3 19 12 71 20 115 13 76 20 124 31 226
10 87 16 429 8 430 -5 0 -18 2 -29 4 -11 2 -50 7 -88 10 -38 4 -76 8 -86 10
-10 2 -53 6 -97 9 -43 4 -97 9 -119 11 -317 34 -818 39 -997 10 -13 -2 -43 -6
-68 -9 -262 -34 -432 -93 -503 -176 -56 -66 -65 -146 -31 -270 73 -262 83
-388 41 -506 -62 -173 -189 -289 -349 -319 -282 -53 -490 -39 -675 45 -136 62
-244 142 -309 231 -54 74 -86 162 -89 247 -5 129 29 231 129 391 54 86 61 102
70 153 19 114 -250 213 -689 253 -38 4 -86 9 -105 11 -89 9 -615 25 -623 18z"/>
</g>
</svg>
